{
	"asset":{
		"generator":"Khronos glTF Blender I/O v3.5.30",
		"version":"2.0"
	},
	"scene":0,
	"scenes":[
		{
			"name":"Scene",
			"nodes":[
				0,
				1
			]
		}
	],
	"nodes":[
		{
			"mesh":0,
			"name":"Base"
		},
		{
			"mesh":1,
			"name":"CannonBody",
			"rotation":[
				0.6935198903083801,
				-0.13794972002506256,
				-0.13794970512390137,
				0.6935199499130249
			],
			"translation":[
				0,
				0.8999999761581421,
				0.20000000298023224
			]
		}
	],
	"materials":[
		{
			"doubleSided":true,
			"name":"Material.003",
			"pbrMetallicRoughness":{
				"baseColorFactor":[
					0.12261171638965607,
					0.05005766823887825,
					0.0003079783928114921,
					1
				],
				"metallicFactor":0,
				"roughnessFactor":0.5
			}
		},
		{
			"doubleSided":true,
			"name":"Material",
			"pbrMetallicRoughness":{
				"baseColorFactor":[
					0.034111712127923965,
					0.034111712127923965,
					0.034111712127923965,
					1
				],
				"metallicFactor":0.7981651425361633,
				"roughnessFactor":1.4449541568756104
			}
		}
	],
	"meshes":[
		{
			"name":"Cylinder.001",
			"primitives":[
				{
					"attributes":{
						"POSITION":0,
						"TEXCOORD_0":1,
						"NORMAL":2
					},
					"indices":3,
					"material":0
				}
			]
		},
		{
			"name":"Cylinder.002",
			"primitives":[
				{
					"attributes":{
						"POSITION":4,
						"TEXCOORD_0":5,
						"NORMAL":6
					},
					"indices":7,
					"material":1
				}
			]
		}
	],
	"accessors":[
		{
			"bufferView":0,
			"componentType":5126,
			"count":748,
			"max":[
				1,
				1.2245678901672363,
				1
			],
			"min":[
				-1,
				0,
				-1
			],
			"type":"VEC3"
		},
		{
			"bufferView":1,
			"componentType":5126,
			"count":748,
			"type":"VEC2"
		},
		{
			"bufferView":2,
			"componentType":5126,
			"count":748,
			"type":"VEC3"
		},
		{
			"bufferView":3,
			"componentType":5123,
			"count":1332,
			"type":"SCALAR"
		},
		{
			"bufferView":4,
			"componentType":5126,
			"count":1216,
			"max":[
				0.3905404210090637,
				0.549910306930542,
				0.39054057002067566
			],
			"min":[
				-0.3905404210090637,
				-1.4097799062728882,
				-0.3905404210090637
			],
			"type":"VEC3"
		},
		{
			"bufferView":5,
			"componentType":5126,
			"count":1216,
			"type":"VEC2"
		},
		{
			"bufferView":6,
			"componentType":5126,
			"count":1216,
			"type":"VEC3"
		},
		{
			"bufferView":7,
			"componentType":5123,
			"count":1824,
			"type":"SCALAR"
		}
	],
	"bufferViews":[
		{
			"buffer":0,
			"byteLength":8976,
			"byteOffset":0,
			"target":34962
		},
		{
			"buffer":0,
			"byteLength":5984,
			"byteOffset":8976,
			"target":34962
		},
		{
			"buffer":0,
			"byteLength":8976,
			"byteOffset":14960,
			"target":34962
		},
		{
			"buffer":0,
			"byteLength":2664,
			"byteOffset":23936,
			"target":34963
		},
		{
			"buffer":0,
			"byteLength":14592,
			"byteOffset":26600,
			"target":34962
		},
		{
			"buffer":0,
			"byteLength":9728,
			"byteOffset":41192,
			"target":34962
		},
		{
			"buffer":0,
			"byteLength":14592,
			"byteOffset":50920,
			"target":34962
		},
		{
			"buffer":0,
			"byteLength":3648,
			"byteOffset":65512,
			"target":34963
		}
	],
	"buffers":[
		{
			"byteLength":69160,
			"uri":"data:application/octet-stream;base64,"
		}
	]
}
